<?xml version="1.0" encoding="UTF-8" standalone="no"?>
<!-- Created with Inkscape (http://www.inkscape.org/) -->
<svg xmlns:rdf="http://www.w3.org/1999/02/22-rdf-syntax-ns#" xmlns="http://www.w3.org/2000/svg" xmlns:cc="http://web.resource.org/cc/" xmlns:dc="http://purl.org/dc/elements/1.1/" xmlns:svg="http://www.w3.org/2000/svg" xmlns:inkscape="http://www.inkscape.org/namespaces/inkscape" xmlns:sodipodi="http://sodipodi.sourceforge.net/DTD/sodipodi-0.dtd" xmlns:ns1="http://sozi.baierouge.fr" xmlns:xlink="http://www.w3.org/1999/xlink" id="Layer_1" xml:space="preserve" version="1.0" viewBox="0 0 63.481 48.369" inkscape:version="0.91 r13725">
<path id="path3" style="fill-rule:evenodd;fill:#006600" d="m57.761 7.4565c-5.23-6.3187-54.699 26.614-51.889 32.804-1.9449-5.277 47.692-37.642 51.889-32.804zm2.643-0.0231c0.177-0.1582-0.028-1.8288-0.121-1.7543 0.093-0.0745-1.114-0.7011-1.776-0.9113-11.856-5.9371-26.914-5.7424-38.583 2.2327-10.72 7.3235-16.276 19.878-16.006 32.412-3.3503-1.563-3.3782-0.809 0.037 1.062 0.2513 5.164 1.1819 5.537 1.2284 0.642 12.331 6.207 27.816 6.048 39.513-2.15 10.59-7.407 16.393-19.588 15.708-31.533zm-17.988 29.366c-10.767 7.519-24.791 8.207-36.544 3.461l-0.6607-0.279c0.4281-11.734 5.9187-23.274 15.96-30.141 11.288-7.7242 25.349-8.4314 36.981-3.1085 0 11.52-5.453 22.874-15.736 30.068z"/>
<metadata><rdf:RDF><cc:Work><dc:format>image/svg+xml</dc:format><dc:type rdf:resource="http://purl.org/dc/dcmitype/StillImage"/><cc:license rdf:resource="http://creativecommons.org/licenses/publicdomain/"/><dc:publisher><cc:Agent rdf:about="http://openclipart.org/"><dc:title>Openclipart</dc:title></cc:Agent></dc:publisher><dc:title>Small Green Leaf Icon</dc:title><dc:date>2010-06-25T19:05:37</dc:date><dc:description>a small green leaf icon</dc:description><dc:source>https://openclipart.org/detail/68557/small-green-leaf-icon-by-jaschon</dc:source><dc:creator><cc:Agent><dc:title>jaschon</dc:title></cc:Agent></dc:creator><dc:subject><rdf:Bag><rdf:li>biology</rdf:li><rdf:li>design</rdf:li><rdf:li>element</rdf:li><rdf:li>green</rdf:li><rdf:li>icon</rdf:li><rdf:li>leaf</rdf:li><rdf:li>logo</rdf:li><rdf:li>nature</rdf:li><rdf:li>plant</rdf:li><rdf:li>symbol</rdf:li><rdf:li>tree</rdf:li></rdf:Bag></dc:subject></cc:Work><cc:License rdf:about="http://creativecommons.org/licenses/publicdomain/"><cc:permits rdf:resource="http://creativecommons.org/ns#Reproduction"/><cc:permits rdf:resource="http://creativecommons.org/ns#Distribution"/><cc:permits rdf:resource="http://creativecommons.org/ns#DerivativeWorks"/></cc:License></rdf:RDF></metadata></svg>
